<svg xmlns="http://www.w3.org/2000/svg" xmlns:xlink="http://www.w3.org/1999/xlink" width="1600" zoomAndPan="magnify" viewBox="0 0 1200 675.000002" height="900" preserveAspectRatio="xMidYMid meet" version="1.2"><defs><clipPath id="d4690aaa8f"><path d="M 841 185.222656 L 883.828125 185.222656 L 883.828125 227 L 841 227 Z M 841 185.222656 "/></clipPath></defs><g id="13d5b469ae"><path style=" stroke:none;fill-rule:nonzero;fill:#38f094;fill-opacity:1;" d="M 846.054688 217.398438 C 831.132812 230.558594 814.832031 245.09375 799.90625 258.25 C 799.914062 258.261719 799.921875 258.273438 799.929688 258.285156 C 800.082031 258.496094 800.226562 258.722656 800.351562 258.980469 C 800.5 259.230469 800.613281 259.480469 800.707031 259.730469 C 801.8125 262.179688 802.460938 264.816406 802.648438 267.480469 C 818.839844 253.203125 836.402344 237.558594 852.589844 223.285156 C 850.042969 221.777344 847.796875 219.769531 846.054688 217.398438 Z M 846.054688 217.398438 "/><path style=" stroke:none;fill-rule:nonzero;fill:#38f094;fill-opacity:1;" d="M 724.023438 217.476562 C 723.792969 220.726562 722.789062 223.855469 721.179688 226.617188 C 734.746094 238.578125 749.6875 251.910156 763.253906 263.871094 C 763.957031 260.902344 765.28125 258.09375 767.207031 255.710938 C 753.269531 243.425781 737.960938 229.765625 724.023438 217.476562 Z M 724.023438 217.476562 "/><path style=" stroke:none;fill-rule:nonzero;fill:#38f094;fill-opacity:1;" d="M 633.761719 264.550781 C 630.351562 261.96875 626.082031 260.375 621.226562 260.113281 C 609.425781 259.476562 600.898438 270.15625 600.3125 281.027344 C 599.675781 292.832031 610.355469 301.359375 621.226562 301.945312 C 632.554688 302.554688 640.847656 292.734375 642.015625 282.332031 C 642.109375 281.933594 642.167969 281.511719 642.144531 281.027344 C 642.167969 280.554688 642.109375 280.140625 642.019531 279.746094 C 641.691406 276.605469 640.816406 273.71875 639.449219 271.1875 C 655.332031 257.191406 671.898438 242.5 687.78125 228.5 C 685.921875 226.082031 684.59375 223.257812 684.015625 220.171875 C 667.492188 234.734375 650.28125 249.988281 633.761719 264.550781 Z M 609.066406 281.027344 C 608.222656 265.34375 632.546875 265.425781 633.386719 281.027344 C 632.542969 296.703125 609.910156 296.703125 609.066406 281.027344 Z M 609.066406 281.027344 "/><path style=" stroke:none;fill-rule:nonzero;fill:#38f094;fill-opacity:1;" d="M 724.609375 214.214844 C 724.589844 214.050781 724.5625 213.890625 724.53125 213.730469 C 724.519531 213.511719 724.5 213.285156 724.453125 213.050781 C 722.472656 202.527344 712.730469 195.113281 702.058594 196.007812 C 691.203125 196.917969 683.300781 206.164062 683.003906 216.820312 C 682.964844 218.207031 683.082031 219.554688 683.328125 220.859375 C 683.90625 223.945312 685.234375 226.765625 687.09375 229.1875 C 691.210938 234.542969 697.933594 237.914062 704.921875 237.707031 C 712.203125 237.488281 718.417969 233.230469 721.871094 227.304688 C 723.476562 224.542969 724.484375 221.417969 724.714844 218.164062 C 724.804688 216.863281 724.777344 215.542969 724.609375 214.214844 Z M 704.921875 228.949219 C 697.675781 229.601562 692.113281 223.761719 691.761719 216.820312 C 691.445312 210.570312 696.601562 205.863281 702.3125 204.734375 C 709.007812 203.414062 714.550781 208.867188 715.914062 214.910156 C 716.472656 221.847656 712.289062 228.289062 704.921875 228.949219 Z M 704.921875 228.949219 "/><path style=" stroke:none;fill-rule:nonzero;fill:#38f094;fill-opacity:1;" d="M 801.039062 258.289062 C 800.910156 258.035156 800.769531 257.808594 800.617188 257.597656 C 800.609375 257.585938 800.601562 257.574219 800.59375 257.5625 C 794.519531 247.964844 782.457031 244.878906 772.359375 250.210938 C 770.023438 251.445312 768.078125 253.09375 766.519531 255.019531 C 764.59375 257.40625 763.269531 260.214844 762.566406 263.183594 C 761.308594 268.496094 762.027344 274.332031 764.8125 279.1875 C 770.339844 288.820312 782.476562 291.417969 792.140625 287.046875 C 800.175781 283.410156 803.925781 274.996094 803.339844 266.792969 C 803.152344 264.128906 802.503906 261.488281 801.394531 259.042969 C 801.300781 258.792969 801.1875 258.542969 801.039062 258.289062 Z M 788.523438 279.066406 C 783.328125 282.148438 776.308594 280.277344 772.851562 275.507812 C 768.839844 269.980469 770.363281 262.1875 775.894531 258.3125 C 781.957031 254.0625 789.9375 256.613281 793.480469 262.707031 C 796.511719 268.773438 794.253906 275.671875 788.523438 279.066406 Z M 788.523438 279.066406 "/><g clip-rule="nonzero" clip-path="url(#d4690aaa8f)"><path style=" stroke:none;fill-rule:nonzero;fill:#38f094;fill-opacity:1;" d="M 883.382812 205.179688 C 883.078125 194.191406 873.804688 185.890625 863.21875 185.242188 C 862.988281 185.214844 862.75 185.195312 862.496094 185.203125 C 862.242188 185.195312 862.007812 185.214844 861.777344 185.238281 C 850.78125 185.886719 842.523438 194.191406 841.601562 205.179688 C 841.199219 209.988281 842.695312 214.457031 845.367188 218.085938 C 847.105469 220.457031 849.355469 222.464844 851.90625 223.96875 C 855.613281 226.164062 859.96875 227.300781 864.359375 226.933594 C 875.488281 225.996094 883.691406 216.179688 883.382812 205.179688 Z M 864.105469 218.203125 C 856.3125 219.742188 850.160156 212.335938 850.363281 205.179688 C 850.539062 198.78125 856.453125 194.128906 862.496094 193.960938 C 868.808594 194.136719 874.09375 198.785156 874.628906 205.179688 C 875.183594 211.808594 870.335938 216.972656 864.105469 218.203125 Z M 864.105469 218.203125 "/></g><g style="fill:#38f094;fill-opacity:1;"><g transform="translate(309.647814, 430.103422)"><path style="stroke:none" d="M 39.34375 0 L 13.828125 0 L 13.828125 -112.203125 L 39.34375 -112.203125 Z M 39.34375 0 "/></g></g><g style="fill:#38f094;fill-opacity:1;"><g transform="translate(348.997379, 430.103422)"><path style="stroke:none" d="M 71.0625 -111.390625 C 76.695312 -110.734375 81.816406 -109.023438 86.421875 -106.265625 C 91.035156 -103.503906 94.722656 -99.65625 97.484375 -94.71875 C 100.242188 -89.789062 101.625 -83.75 101.625 -76.59375 C 101.625 -69.539062 100.210938 -63.519531 97.390625 -58.53125 C 94.578125 -53.550781 90.835938 -49.675781 86.171875 -46.90625 C 81.515625 -44.144531 76.476562 -42.441406 71.0625 -41.796875 C 68.238281 -41.460938 65.582031 -41.242188 63.09375 -41.140625 C 60.601562 -41.035156 57.675781 -40.984375 54.3125 -40.984375 L 39.34375 -40.984375 L 39.34375 0 L 13.828125 0 L 13.828125 -112.203125 L 54.3125 -112.203125 C 57.675781 -112.203125 60.601562 -112.144531 63.09375 -112.03125 C 65.582031 -111.925781 68.238281 -111.710938 71.0625 -111.390625 Z M 62.28125 -61.296875 C 66.070312 -61.835938 69.132812 -63.328125 71.46875 -65.765625 C 73.800781 -68.210938 74.96875 -71.820312 74.96875 -76.59375 C 74.96875 -81.363281 73.800781 -84.992188 71.46875 -87.484375 C 69.132812 -89.972656 66.070312 -91.4375 62.28125 -91.875 C 61.195312 -92.09375 59.894531 -92.203125 58.375 -92.203125 C 56.851562 -92.203125 55.171875 -92.203125 53.328125 -92.203125 L 39.34375 -92.203125 L 39.34375 -60.984375 L 53.328125 -60.984375 C 55.171875 -60.984375 56.851562 -61.007812 58.375 -61.0625 C 59.894531 -61.113281 61.195312 -61.191406 62.28125 -61.296875 Z M 62.28125 -61.296875 "/></g></g><g style="fill:#38f094;fill-opacity:1;"><g transform="translate(442.169188, 430.103422)"><path style="stroke:none" d=""/></g></g><g style="fill:#38f094;fill-opacity:1;"><g transform="translate(462.656593, 430.103422)"><path style="stroke:none" d="M 98.546875 -20 L 98.546875 0 L 8.296875 0 L 8.296875 -19.34375 L 67.15625 -92.359375 L 12.84375 -92.359375 L 12.84375 -112.203125 L 97.734375 -112.203125 L 97.734375 -92.53125 L 39.515625 -20 Z M 98.546875 -20 "/></g></g><g style="fill:#38f094;fill-opacity:1;"><g transform="translate(555.99101, 430.103422)"><path style="stroke:none" d="M 64.875 -114.484375 C 76.476562 -114.484375 86.476562 -112.097656 94.875 -107.328125 C 103.28125 -102.554688 109.757812 -95.804688 114.3125 -87.078125 C 118.863281 -78.347656 121.140625 -68.019531 121.140625 -56.09375 C 121.140625 -44.28125 118.863281 -34.007812 114.3125 -25.28125 C 109.757812 -16.5625 103.28125 -9.785156 94.875 -4.953125 C 86.476562 -0.128906 76.476562 2.28125 64.875 2.28125 C 53.28125 2.28125 43.253906 -0.128906 34.796875 -4.953125 C 26.335938 -9.785156 19.832031 -16.5625 15.28125 -25.28125 C 10.726562 -34.007812 8.453125 -44.28125 8.453125 -56.09375 C 8.453125 -68.019531 10.726562 -78.347656 15.28125 -87.078125 C 19.832031 -95.804688 26.335938 -102.554688 34.796875 -107.328125 C 43.253906 -112.097656 53.28125 -114.484375 64.875 -114.484375 Z M 64.875 -16.59375 C 74.195312 -16.59375 81.515625 -20.0625 86.828125 -27 C 92.140625 -33.9375 94.796875 -43.632812 94.796875 -56.09375 C 94.796875 -68.675781 92.140625 -78.40625 86.828125 -85.28125 C 81.515625 -92.164062 74.195312 -95.609375 64.875 -95.609375 C 55.550781 -95.609375 48.207031 -92.164062 42.84375 -85.28125 C 37.476562 -78.40625 34.796875 -68.675781 34.796875 -56.09375 C 34.796875 -43.632812 37.476562 -33.9375 42.84375 -27 C 48.207031 -20.0625 55.550781 -16.59375 64.875 -16.59375 Z M 64.875 -16.59375 "/></g></g><g style="fill:#38f094;fill-opacity:1;"><g transform="translate(672.252714, 430.103422)"><path style="stroke:none" d="M 116.265625 0 L 82.28125 0 L 38.375 -80.328125 C 38.8125 -74.367188 39.082031 -68.648438 39.1875 -63.171875 C 39.289062 -57.703125 39.34375 -52.90625 39.34375 -48.78125 L 39.34375 0 L 13.828125 0 L 13.828125 -112.203125 L 46.5 -112.203125 L 91.71875 -29.59375 C 91.382812 -35.445312 91.164062 -41.328125 91.0625 -47.234375 C 90.957031 -53.140625 90.90625 -58.15625 90.90625 -62.28125 L 90.90625 -112.203125 L 116.265625 -112.203125 Z M 116.265625 0 "/></g></g><g style="fill:#38f094;fill-opacity:1;"><g transform="translate(788.514417, 430.103422)"><path style="stroke:none" d="M 97.078125 -20 L 97.078125 0 L 13.828125 0 L 13.828125 -112.203125 L 95.453125 -112.203125 L 95.453125 -92.359375 L 39.34375 -92.359375 L 39.34375 -66.1875 L 91.71875 -66.1875 L 91.71875 -46.34375 L 39.34375 -46.34375 L 39.34375 -20 Z M 97.078125 -20 "/></g></g><g style="fill:#38f094;fill-opacity:1;"><g transform="translate(494.443546, 479.58904)"><path style="stroke:none" d="M 30.5625 -21.5 L 23.78125 0 L 20.734375 0 L 15.4375 -18.9375 L 10.15625 0 L 7.078125 0 L 0.25 -21.5 L 3.125 -21.5 L 8.65625 -2.3125 L 13.90625 -21.453125 L 17.109375 -21.453125 L 22.390625 -2.515625 L 27.875 -21.5 Z M 30.5625 -21.5 "/></g></g><g style="fill:#38f094;fill-opacity:1;"><g transform="translate(529.346473, 479.58904)"><path style="stroke:none" d="M 20.234375 -15.640625 C 20.285156 -15.097656 20.3125 -14.578125 20.3125 -14.078125 C 20.3125 -13.578125 20.3125 -12.894531 20.3125 -12.03125 L 20.3125 0 L 17.796875 0 L 17.796875 -11.75 C 17.796875 -12.375 17.796875 -12.9375 17.796875 -13.4375 C 17.796875 -13.9375 17.769531 -14.457031 17.71875 -15 C 17.582031 -16.457031 17.082031 -17.660156 16.21875 -18.609375 C 15.351562 -19.554688 14.007812 -20.019531 12.1875 -20 C 11 -20 9.894531 -19.6875 8.875 -19.0625 C 7.863281 -18.4375 7.046875 -17.445312 6.421875 -16.09375 C 5.796875 -14.738281 5.484375 -12.9375 5.484375 -10.6875 L 5.484375 0 L 2.96875 0 L 2.96875 -30.078125 L 5.484375 -30.078125 L 5.484375 -17.359375 L 6.625 -19.671875 C 7.488281 -20.535156 8.414062 -21.148438 9.40625 -21.515625 C 10.394531 -21.878906 11.488281 -22.0625 12.6875 -22.0625 C 14.957031 -22.0625 16.734375 -21.484375 18.015625 -20.328125 C 19.304688 -19.179688 20.046875 -17.617188 20.234375 -15.640625 Z M 20.234375 -15.640625 "/></g></g><g style="fill:#38f094;fill-opacity:1;"><g transform="translate(556.529872, 479.58904)"><path style="stroke:none" d="M 15.84375 0 L 15.484375 -3.90625 L 14.421875 -1.625 C 13.671875 -0.863281 12.785156 -0.3125 11.765625 0.03125 C 10.742188 0.382812 9.640625 0.5625 8.453125 0.5625 C 6.472656 0.5625 4.835938 0.0546875 3.546875 -0.953125 C 2.265625 -1.972656 1.625 -3.457031 1.625 -5.40625 C 1.625 -7.875 2.726562 -9.707031 4.9375 -10.90625 C 7.144531 -12.113281 10.1875 -12.71875 14.0625 -12.71875 L 15.4375 -12.71875 L 15.4375 -13.5 C 15.4375 -13.976562 15.4375 -14.425781 15.4375 -14.84375 C 15.4375 -15.269531 15.410156 -15.703125 15.359375 -16.140625 C 15.253906 -17.378906 14.816406 -18.335938 14.046875 -19.015625 C 13.273438 -19.691406 12.113281 -20.03125 10.5625 -20.03125 C 9.070312 -20.03125 7.835938 -19.628906 6.859375 -18.828125 C 5.890625 -18.035156 5.320312 -16.800781 5.15625 -15.125 L 2.515625 -15.125 C 2.648438 -17.226562 3.457031 -18.910156 4.9375 -20.171875 C 6.414062 -21.429688 8.289062 -22.0625 10.5625 -22.0625 C 12.945312 -22.0625 14.722656 -21.550781 15.890625 -20.53125 C 17.054688 -19.519531 17.71875 -18.132812 17.875 -16.375 C 17.9375 -15.914062 17.96875 -15.457031 17.96875 -15 C 17.96875 -14.539062 17.96875 -14.050781 17.96875 -13.53125 L 17.96875 -6.015625 C 17.96875 -5.066406 18 -4.144531 18.0625 -3.25 C 18.132812 -2.351562 18.238281 -1.269531 18.375 0 Z M 9.21875 -1.421875 C 11.09375 -1.421875 12.597656 -2.0625 13.734375 -3.34375 C 14.867188 -4.632812 15.4375 -6.285156 15.4375 -8.296875 L 15.4375 -10.765625 C 13.4375 -10.898438 11.59375 -10.816406 9.90625 -10.515625 C 8.226562 -10.222656 6.890625 -9.675781 5.890625 -8.875 C 4.890625 -8.082031 4.390625 -6.992188 4.390625 -5.609375 C 4.390625 -4.253906 4.800781 -3.21875 5.625 -2.5 C 6.457031 -1.78125 7.65625 -1.421875 9.21875 -1.421875 Z M 9.21875 -1.421875 "/></g></g><g style="fill:#38f094;fill-opacity:1;"><g transform="translate(581.600573, 479.58904)"><path style="stroke:none" d="M 6.21875 -19.390625 L 6.21875 -5.890625 C 6.21875 -5.460938 6.21875 -5.113281 6.21875 -4.84375 C 6.21875 -4.570312 6.234375 -4.285156 6.265625 -3.984375 C 6.335938 -2.953125 6.648438 -2.273438 7.203125 -1.953125 C 7.765625 -1.628906 8.765625 -1.5625 10.203125 -1.75 L 10.203125 0.125 C 9.765625 0.207031 9.328125 0.257812 8.890625 0.28125 C 8.460938 0.3125 8.03125 0.328125 7.59375 0.328125 C 5.207031 0.328125 3.921875 -0.8125 3.734375 -3.09375 C 3.710938 -3.46875 3.703125 -3.867188 3.703125 -4.296875 C 3.703125 -4.734375 3.703125 -5.253906 3.703125 -5.859375 L 3.703125 -19.390625 L 0.9375 -19.390625 L 0.9375 -21.34375 L 3.703125 -21.34375 L 3.703125 -26.09375 L 6.21875 -26.09375 L 6.21875 -21.34375 L 10.328125 -21.34375 L 10.328125 -19.390625 Z M 6.21875 -19.390625 "/></g></g><g style="fill:#38f094;fill-opacity:1;"><g transform="translate(597.204694, 479.58904)"><path style="stroke:none" d="M 4.234375 -27.84375 C 4.710938 -27.84375 5.113281 -27.675781 5.4375 -27.34375 C 5.769531 -27.019531 5.9375 -26.613281 5.9375 -26.125 C 5.9375 -25.664062 5.769531 -25.265625 5.4375 -24.921875 C 5.113281 -24.585938 4.710938 -24.421875 4.234375 -24.421875 C 3.765625 -24.421875 3.359375 -24.585938 3.015625 -24.921875 C 2.679688 -25.265625 2.515625 -25.664062 2.515625 -26.125 C 2.515625 -26.613281 2.679688 -27.019531 3.015625 -27.34375 C 3.359375 -27.675781 3.765625 -27.84375 4.234375 -27.84375 Z M 5.484375 0 L 2.96875 0 L 2.96875 -21.5 L 5.484375 -21.5 Z M 5.484375 0 "/></g></g><g style="fill:#38f094;fill-opacity:1;"><g transform="translate(609.802248, 479.58904)"><path style="stroke:none" d="M 9.0625 -22.0625 C 11.394531 -22.0625 13.195312 -21.4375 14.46875 -20.1875 C 15.738281 -18.945312 16.5 -17.378906 16.75 -15.484375 L 14.109375 -15.484375 C 13.484375 -18.515625 11.734375 -20.03125 8.859375 -20.03125 C 7.554688 -20.03125 6.503906 -19.691406 5.703125 -19.015625 C 4.910156 -18.335938 4.515625 -17.40625 4.515625 -16.21875 C 4.515625 -14.96875 4.976562 -14.046875 5.90625 -13.453125 C 6.84375 -12.859375 8.082031 -12.367188 9.625 -11.984375 C 12.125 -11.390625 13.96875 -10.59375 15.15625 -9.59375 C 16.351562 -8.59375 16.953125 -7.179688 16.953125 -5.359375 C 16.953125 -3.460938 16.222656 -2 14.765625 -0.96875 C 13.316406 0.0507812 11.484375 0.5625 9.265625 0.5625 C 7.128906 0.5625 5.296875 0.0195312 3.765625 -1.0625 C 2.234375 -2.144531 1.316406 -3.90625 1.015625 -6.34375 L 3.609375 -6.34375 C 3.910156 -4.519531 4.597656 -3.242188 5.671875 -2.515625 C 6.742188 -1.785156 7.992188 -1.421875 9.421875 -1.421875 C 10.773438 -1.421875 11.941406 -1.734375 12.921875 -2.359375 C 13.898438 -2.984375 14.390625 -3.914062 14.390625 -5.15625 C 14.390625 -6.351562 13.953125 -7.289062 13.078125 -7.96875 C 12.210938 -8.644531 10.738281 -9.238281 8.65625 -9.75 C 7.4375 -10.070312 6.3125 -10.476562 5.28125 -10.96875 C 4.25 -11.457031 3.425781 -12.101562 2.8125 -12.90625 C 2.207031 -13.707031 1.90625 -14.71875 1.90625 -15.9375 C 1.90625 -17.769531 2.566406 -19.25 3.890625 -20.375 C 5.222656 -21.5 6.945312 -22.0625 9.0625 -22.0625 Z M 9.0625 -22.0625 "/></g></g><g style="fill:#38f094;fill-opacity:1;"><g transform="translate(632.150795, 479.58904)"><path style="stroke:none" d="M 31.046875 -16.296875 C 31.128906 -15.753906 31.179688 -15.234375 31.203125 -14.734375 C 31.234375 -14.234375 31.25 -13.550781 31.25 -12.6875 L 31.25 0 L 28.734375 0 L 28.734375 -11.546875 C 28.734375 -13.191406 28.679688 -14.503906 28.578125 -15.484375 C 28.378906 -16.921875 27.882812 -18.035156 27.09375 -18.828125 C 26.3125 -19.628906 25.207031 -20.03125 23.78125 -20.03125 C 22.769531 -20.03125 21.851562 -19.738281 21.03125 -19.15625 C 20.207031 -18.570312 19.554688 -17.644531 19.078125 -16.375 C 18.609375 -15.101562 18.375 -13.394531 18.375 -11.25 L 18.375 0 L 15.84375 0 L 15.84375 -11.546875 C 15.84375 -13.191406 15.789062 -14.503906 15.6875 -15.484375 C 15.5 -16.921875 15.007812 -18.035156 14.21875 -18.828125 C 13.4375 -19.628906 12.328125 -20.03125 10.890625 -20.03125 C 9.890625 -20.03125 8.972656 -19.738281 8.140625 -19.15625 C 7.316406 -18.570312 6.664062 -17.644531 6.1875 -16.375 C 5.71875 -15.101562 5.484375 -13.394531 5.484375 -11.25 L 5.484375 0 L 2.96875 0 L 2.96875 -21.5 L 5.484375 -21.5 L 5.484375 -17.796875 L 6.703125 -20.203125 C 7.328125 -20.847656 8.054688 -21.316406 8.890625 -21.609375 C 9.734375 -21.910156 10.65625 -22.0625 11.65625 -22.0625 C 13.363281 -22.0625 14.742188 -21.640625 15.796875 -20.796875 C 16.859375 -19.960938 17.566406 -18.851562 17.921875 -17.46875 L 19.59375 -20.203125 C 20.21875 -20.847656 20.945312 -21.316406 21.78125 -21.609375 C 22.625 -21.910156 23.546875 -22.0625 24.546875 -22.0625 C 26.472656 -22.0625 27.976562 -21.523438 29.0625 -20.453125 C 30.144531 -19.390625 30.804688 -18.003906 31.046875 -16.296875 Z M 31.046875 -16.296875 "/></g></g><g style="fill:#38f094;fill-opacity:1;"><g transform="translate(670.263442, 479.58904)"><path style="stroke:none" d="M 19.703125 -21.5 L 11.09375 1.140625 C 10.363281 3.035156 9.628906 4.515625 8.890625 5.578125 C 8.160156 6.648438 7.382812 7.410156 6.5625 7.859375 C 5.738281 8.304688 4.8125 8.53125 3.78125 8.53125 C 3.425781 8.53125 3.117188 8.523438 2.859375 8.515625 C 2.609375 8.503906 2.359375 8.46875 2.109375 8.40625 L 2.109375 6.34375 C 2.378906 6.363281 2.625 6.378906 2.84375 6.390625 C 3.0625 6.410156 3.28125 6.421875 3.5 6.421875 C 4.46875 6.421875 5.335938 6.109375 6.109375 5.484375 C 6.890625 4.859375 7.617188 3.679688 8.296875 1.953125 L 8.734375 0.8125 L 0.25 -21.5 L 3.09375 -21.5 L 10.03125 -1.875 L 16.953125 -21.5 Z M 19.703125 -21.5 "/></g></g><g style="fill:#38f094;fill-opacity:1;"><g transform="translate(694.31841, 479.58904)"><path style="stroke:none" d="M 4.234375 -27.84375 C 4.710938 -27.84375 5.113281 -27.675781 5.4375 -27.34375 C 5.769531 -27.019531 5.9375 -26.613281 5.9375 -26.125 C 5.9375 -25.664062 5.769531 -25.265625 5.4375 -24.921875 C 5.113281 -24.585938 4.710938 -24.421875 4.234375 -24.421875 C 3.765625 -24.421875 3.359375 -24.585938 3.015625 -24.921875 C 2.679688 -25.265625 2.515625 -25.664062 2.515625 -26.125 C 2.515625 -26.613281 2.679688 -27.019531 3.015625 -27.34375 C 3.359375 -27.675781 3.765625 -27.84375 4.234375 -27.84375 Z M 5.484375 0 L 2.96875 0 L 2.96875 -21.5 L 5.484375 -21.5 Z M 5.484375 0 "/></g></g><g style="fill:#38f094;fill-opacity:1;"><g transform="translate(706.915964, 479.58904)"><path style="stroke:none" d="M 13 -22.0625 C 15.007812 -22.0625 16.726562 -21.582031 18.15625 -20.625 C 19.59375 -19.664062 20.691406 -18.359375 21.453125 -16.703125 C 22.210938 -15.046875 22.59375 -13.148438 22.59375 -11.015625 C 22.59375 -8.410156 22.117188 -6.25 21.171875 -4.53125 C 20.222656 -2.8125 18.96875 -1.53125 17.40625 -0.6875 C 15.851562 0.144531 14.171875 0.5625 12.359375 0.5625 C 11.296875 0.5625 10.273438 0.398438 9.296875 0.078125 C 8.328125 -0.242188 7.503906 -0.71875 6.828125 -1.34375 L 5.484375 -3.65625 L 5.484375 7.96875 L 2.96875 7.96875 L 2.96875 -21.625 L 5.484375 -21.625 L 5.484375 -17.515625 L 6.90625 -19.875 C 8.425781 -21.332031 10.457031 -22.0625 13 -22.0625 Z M 12.359375 -1.421875 C 13.796875 -1.421875 15.070312 -1.785156 16.1875 -2.515625 C 17.3125 -3.242188 18.195312 -4.304688 18.84375 -5.703125 C 19.5 -7.097656 19.828125 -8.757812 19.828125 -10.6875 C 19.828125 -12.425781 19.554688 -14 19.015625 -15.40625 C 18.472656 -16.8125 17.664062 -17.929688 16.59375 -18.765625 C 15.53125 -19.609375 14.210938 -20.03125 12.640625 -20.03125 C 11.367188 -20.03125 10.191406 -19.753906 9.109375 -19.203125 C 8.023438 -18.648438 7.148438 -17.726562 6.484375 -16.4375 C 5.816406 -15.15625 5.484375 -13.425781 5.484375 -11.25 L 5.484375 -9.625 C 5.484375 -7.59375 5.832031 -5.972656 6.53125 -4.765625 C 7.238281 -3.566406 8.117188 -2.707031 9.171875 -2.1875 C 10.234375 -1.675781 11.296875 -1.421875 12.359375 -1.421875 Z M 12.359375 -1.421875 "/></g></g><g style="fill:#38f094;fill-opacity:1;"><g transform="translate(734.79008, 479.58904)"><path style="stroke:none" d="M 3.5 -3.296875 C 4.039062 -3.296875 4.492188 -3.109375 4.859375 -2.734375 C 5.222656 -2.367188 5.40625 -1.914062 5.40625 -1.375 C 5.40625 -0.8125 5.222656 -0.347656 4.859375 0.015625 C 4.492188 0.378906 4.039062 0.5625 3.5 0.5625 C 2.925781 0.5625 2.457031 0.378906 2.09375 0.015625 C 1.726562 -0.347656 1.546875 -0.8125 1.546875 -1.375 C 1.546875 -1.914062 1.726562 -2.367188 2.09375 -2.734375 C 2.457031 -3.109375 2.925781 -3.296875 3.5 -3.296875 Z M 3.5 -3.296875 "/></g></g><g style="fill:#38f094;fill-opacity:1;"><g transform="translate(746.737575, 479.58904)"><path style="stroke:none" d="M 17.4375 -2.03125 L 17.4375 0 L 0.6875 0 L 0.6875 -1.953125 L 14.265625 -19.21875 L 1.671875 -19.21875 L 1.671875 -21.25 L 17.265625 -21.25 L 17.265625 -19.1875 L 3.734375 -2.03125 Z M 17.4375 -2.03125 "/></g></g><g style="fill:#38f094;fill-opacity:1;"><g transform="translate(769.289274, 479.58904)"><path style="stroke:none" d="M 11.65625 -22.0625 C 13.9375 -22.0625 15.851562 -21.5625 17.40625 -20.5625 C 18.96875 -19.5625 20.140625 -18.203125 20.921875 -16.484375 C 21.710938 -14.765625 22.109375 -12.847656 22.109375 -10.734375 C 22.109375 -8.640625 21.710938 -6.734375 20.921875 -5.015625 C 20.140625 -3.296875 18.96875 -1.9375 17.40625 -0.9375 C 15.851562 0.0625 13.9375 0.5625 11.65625 0.5625 C 9.382812 0.5625 7.46875 0.0625 5.90625 -0.9375 C 4.351562 -1.9375 3.179688 -3.296875 2.390625 -5.015625 C 1.609375 -6.734375 1.21875 -8.640625 1.21875 -10.734375 C 1.21875 -12.847656 1.609375 -14.765625 2.390625 -16.484375 C 3.179688 -18.203125 4.351562 -19.5625 5.90625 -20.5625 C 7.46875 -21.5625 9.382812 -22.0625 11.65625 -22.0625 Z M 11.65625 -1.421875 C 13.15625 -1.421875 14.476562 -1.789062 15.625 -2.53125 C 16.78125 -3.28125 17.6875 -4.34375 18.34375 -5.71875 C 19.007812 -7.101562 19.34375 -8.773438 19.34375 -10.734375 C 19.34375 -12.679688 19.007812 -14.351562 18.34375 -15.75 C 17.6875 -17.144531 16.78125 -18.207031 15.625 -18.9375 C 14.476562 -19.664062 13.15625 -20.03125 11.65625 -20.03125 C 10.164062 -20.03125 8.84375 -19.664062 7.6875 -18.9375 C 6.539062 -18.207031 5.632812 -17.144531 4.96875 -15.75 C 4.3125 -14.351562 3.984375 -12.679688 3.984375 -10.734375 C 3.984375 -8.773438 4.3125 -7.101562 4.96875 -5.71875 C 5.632812 -4.34375 6.539062 -3.28125 7.6875 -2.53125 C 8.84375 -1.789062 10.164062 -1.421875 11.65625 -1.421875 Z M 11.65625 -1.421875 "/></g></g><g style="fill:#38f094;fill-opacity:1;"><g transform="translate(796.675825, 479.58904)"><path style="stroke:none" d="M 20.234375 -15.640625 C 20.285156 -15.097656 20.3125 -14.578125 20.3125 -14.078125 C 20.3125 -13.578125 20.3125 -12.894531 20.3125 -12.03125 L 20.3125 0 L 17.796875 0 L 17.796875 -11.75 C 17.796875 -12.375 17.796875 -12.9375 17.796875 -13.4375 C 17.796875 -13.9375 17.769531 -14.457031 17.71875 -15 C 17.582031 -16.457031 17.082031 -17.65625 16.21875 -18.59375 C 15.351562 -19.53125 14.007812 -20 12.1875 -20 C 11 -20 9.894531 -19.6875 8.875 -19.0625 C 7.863281 -18.4375 7.046875 -17.445312 6.421875 -16.09375 C 5.796875 -14.738281 5.484375 -12.9375 5.484375 -10.6875 L 5.484375 0 L 2.96875 0 L 2.96875 -21.5 L 5.484375 -21.5 L 5.484375 -17.359375 L 6.625 -19.671875 C 7.488281 -20.535156 8.414062 -21.148438 9.40625 -21.515625 C 10.394531 -21.878906 11.488281 -22.0625 12.6875 -22.0625 C 14.957031 -22.0625 16.734375 -21.484375 18.015625 -20.328125 C 19.304688 -19.179688 20.046875 -17.617188 20.234375 -15.640625 Z M 20.234375 -15.640625 "/></g></g><g style="fill:#38f094;fill-opacity:1;"><g transform="translate(823.859224, 479.58904)"><path style="stroke:none" d="M 20.3125 -11.34375 C 20.3125 -11.207031 20.3125 -11.03125 20.3125 -10.8125 C 20.3125 -10.59375 20.285156 -10.320312 20.234375 -10 L 3.9375 -10 C 4.050781 -7.882812 4.4375 -6.203125 5.09375 -4.953125 C 5.757812 -3.710938 6.609375 -2.8125 7.640625 -2.25 C 8.671875 -1.695312 9.769531 -1.421875 10.9375 -1.421875 C 12.445312 -1.421875 13.804688 -1.875 15.015625 -2.78125 C 16.222656 -3.6875 17.015625 -5.019531 17.390625 -6.78125 L 20.03125 -6.78125 C 19.707031 -5.132812 19.082031 -3.757812 18.15625 -2.65625 C 17.238281 -1.5625 16.132812 -0.75 14.84375 -0.21875 C 13.5625 0.300781 12.203125 0.5625 10.765625 0.5625 C 8.984375 0.5625 7.375 0.144531 5.9375 -0.6875 C 4.5 -1.53125 3.351562 -2.785156 2.5 -4.453125 C 1.644531 -6.117188 1.21875 -8.210938 1.21875 -10.734375 C 1.21875 -13.035156 1.65625 -15.03125 2.53125 -16.71875 C 3.414062 -18.414062 4.609375 -19.726562 6.109375 -20.65625 C 7.617188 -21.59375 9.304688 -22.0625 11.171875 -22.0625 C 13.179688 -22.0625 14.863281 -21.582031 16.21875 -20.625 C 17.570312 -19.664062 18.59375 -18.375 19.28125 -16.75 C 19.96875 -15.125 20.3125 -13.320312 20.3125 -11.34375 Z M 11.09375 -20.03125 C 9.925781 -20.03125 8.820312 -19.734375 7.78125 -19.140625 C 6.738281 -18.546875 5.867188 -17.648438 5.171875 -16.453125 C 4.484375 -15.265625 4.070312 -13.773438 3.9375 -11.984375 L 17.765625 -11.984375 C 17.628906 -14.753906 16.9375 -16.785156 15.6875 -18.078125 C 14.4375 -19.378906 12.90625 -20.03125 11.09375 -20.03125 Z M 11.09375 -20.03125 "/></g></g></g></svg>